<?xml version="1.0" encoding="utf-8"?>
<!-- Generator: Adobe Illustrator 26.5.2, SVG Export Plug-In . SVG Version: 6.00 Build 0)  -->
<svg version="1.1" id="Layer_1" xmlns="http://www.w3.org/2000/svg" xmlns:xlink="http://www.w3.org/1999/xlink" x="0px" y="0px"
	 viewBox="0 0 222 171" style="enable-background:new 0 0 222 171;" xml:space="preserve">
<style type="text/css">
	.st0{enable-background:new    ;}
	.st1{fill:#EAEAEA;}
</style>
<g class="st0">
	<path class="st1" d="M129,54.1c0,14.4-9.6,24.9-24.4,24.9H81.8v-0.9l4.1-0.7C90,76.6,90,76.1,90,56.7c0-21.5-0.1-21.9-3.7-22.4
		l-4.5-0.6v-0.9h23.6C121.1,32.8,129,41,129,54.1z M96.1,77.9c22.9-1.9,26.9-6.2,26.9-21.1c0-14.6-6.9-22.9-22.7-22.9
		c-1.5,0-2.9,0.1-4.2,0.2c-0.7,2.4-0.9,7-0.9,21.8C95.3,72.5,95.6,75.6,96.1,77.9z"/>
	<path class="st1" d="M167.9,55.7l-5.3,1.3l-22.7-0.2c0,0.5,0,0.9,0,1.5c0,11.8,5.8,17,14.4,17c6.8,0,10.8-2.8,13.3-10.5l0.7,0.4
		c-2.5,9.9-7.4,14.6-16.6,14.6c-10.7,0-17.6-7.1-17.6-19.5c0-10.7,7.1-18.3,19.7-18.3C163,42,168.3,46.8,167.9,55.7z M140,56.3
		l20.2-0.8c1.6-0.2,2-1.1,2-2.4c0-5.8-4.5-9.9-10.7-9.9C144.6,43.3,140.5,47.9,140,56.3z"/>
	<path class="st1" d="M196.5,71.7h-0.4c-1.8,4.4-6.9,8.1-12.4,8.1c-6.8,0-10.6-3.8-10.6-8.2c0-4.2,6.4-6.9,23.5-10.3
		c0-0.8,0-1.8,0-3c0-11-1.4-14.1-7.7-14.1c-5.9,0-8.9,2.5-8.9,8.2c0,1.4,0.2,3.5,0.5,5.5l-5.8,0.9c-0.2-11.3,9-16.7,16.7-16.7
		c7.1,0,10.5,3.1,10.5,10.4c0,2.4-0.2,6.7-0.2,10c0,11.5,0.5,13.2,2.5,13.2c2.1,0,3.2-2,4-11h0.8c-0.8,10.8-2.6,14.9-6.9,14.9
		C198.4,79.4,196.6,76.9,196.5,71.7z M196.2,69.6c0.3-1.6,0.4-2.7,0.4-6.6c-6.2,0.9-11.7,1.9-15.6,3.2c-1.9,0.5-2.8,1.5-2.8,3
		c0,3.8,3.1,6.1,9.1,6.1C190.8,75.2,195.6,73.5,196.2,69.6z"/>
</g>
<g class="st0">
	<path class="st1" d="M7.2,103.3l-4.6-0.6v-0.9h21.7v0.9l-5.1,0.7c-2.8,0.4-3.2,1.2-3.2,20.4c0,21.6,0.1,21.9,3.9,22.6l4.4,0.7v0.9
		H2.5v-0.9l4.5-0.7c3.8-0.6,3.8-1.2,3.8-20.6C10.8,104.3,10.7,103.8,7.2,103.3z"/>
	<path class="st1" d="M67.5,146.5l5.7,0.5v0.9H51.4v-0.9l5.6-0.7c2.4-0.4,2.5-1.5,2.5-17.2c0-11.2-1-14.2-8.5-14.2
		c-5.9,0-12.2,3-12.2,11.1c0,19.3,0.3,19.9,2.5,20.2l6.2,0.8v0.9H27.3v-0.9l2.6-0.4c3.6-0.5,3.8-1,3.8-15.3
		c0-14.6-0.2-14.9-2.9-15.2l-3.5-0.3V115c4.5-1.1,8.2-2.3,10.9-3.6l0.6,0.2l-0.2,10.3L39,122c1.5-5.7,7-11,15.6-11
		c7,0,10.1,3.2,10.1,10.7v0.2l0.3,0.1c1.5-5.7,7.1-11,15.6-11c7.3,0,10.4,3.2,10.4,9.5c0,4.2-0.2,9.2-0.2,13.5
		c0,10.7,0.2,12.1,2.6,12.6l3.3,0.5v0.9H77.2v-0.9l5.8-0.7c2.4-0.4,2.5-1.5,2.5-17.2c0-11.2-1-14.2-8.4-14.2
		c-5.9,0-12.2,3-12.2,11.1C64.8,145.2,65.1,146.2,67.5,146.5z"/>
	<path class="st1" d="M133.5,124.7l-5.3,1.3l-22.7-0.2c0,0.5,0,0.9,0,1.5c0,11.8,5.8,17,14.4,17c6.8,0,10.8-2.8,13.3-10.5l0.7,0.4
		c-2.5,9.9-7.4,14.6-16.6,14.6c-10.7,0-17.6-7.1-17.6-19.5c0-10.7,7.1-18.3,19.7-18.3C128.6,111,133.8,115.8,133.5,124.7z
		 M105.6,125.3l20.2-0.8c1.6-0.2,2-1.1,2-2.4c0-5.8-4.5-9.9-10.7-9.9C110.2,112.3,106.1,116.9,105.6,125.3z"/>
</g>
<g class="st0">
	<path class="st1" d="M164.7,117.9c-8.2-0.4-9.9,3.6-19.6,30.1h-6.6c3.2-9.3,10.3-23.8,10.3-27.7c0-2.1-1.1-3.6-3.4-3.6
		c-2.1,0-3.9,1-7.5,8.4l-0.6-0.3c3.8-10.2,5.8-13.9,8.7-13.9c2.3,0,4.1,3.4,4.1,8.9c0,3.9-2.7,15.2-4.3,22.4l0.5,0.2
		c8.2-23.5,11-31.2,19-31.2L164.7,117.9z"/>
</g>
<g class="st0">
	<path class="st1" d="M189.3,140.7h-0.4c-1.8,4.4-6.9,8.1-12.4,8.1c-6.8,0-10.6-3.8-10.6-8.2c0-4.2,6.4-6.9,23.5-10.3
		c0-0.8,0-1.8,0-3c0-11-1.4-14.1-7.7-14.1c-5.9,0-8.9,2.5-8.9,8.2c0,1.4,0.2,3.5,0.5,5.5l-5.8,0.9c-0.2-11.3,9-16.7,16.7-16.7
		c7.1,0,10.5,3.1,10.5,10.4c0,2.4-0.2,6.7-0.2,10c0,11.5,0.5,13.2,2.5,13.2c2.1,0,3.2-2,4-11h0.8c-0.8,10.8-2.6,14.9-6.9,14.9
		C191.2,148.4,189.3,145.9,189.3,140.7z M189,138.6c0.3-1.6,0.4-2.7,0.4-6.6c-6.2,0.9-11.7,1.9-15.6,3.2c-1.9,0.5-2.8,1.5-2.8,3
		c0,3.8,3.1,6.1,9.1,6.1C183.6,144.2,188.3,142.5,189,138.6z"/>
	<path class="st1" d="M214.5,111.3l0.6,0.2c-0.1,5.6-0.1,9.5-0.1,16.6c0,10.9,0.3,17.7,0.3,20c0,6.9-5.4,10.2-12,13.2l-0.3-0.8
		c6.5-4.8,6.7-4.9,6.7-25.4c0-18.2-0.2-18.6-2.8-18.9l-3.5-0.3V115C208.1,113.8,211.6,112.7,214.5,111.3z M207.4,100.9
		c0-2.6,1.9-3.9,4.9-3.9c2.2,0,3.8,1.1,3.8,3.2c0,2.6-1.9,3.9-4.9,3.9C208.9,104.2,207.4,103,207.4,100.9z"/>
</g>
</svg>
