<svg viewBox="0 0 2293.76 374.77" xmlns="http://www.w3.org/2000/svg"><g fill="#eaeaea"><path d="m205.86 261.86h-89.96l.59-3.53 16.46-2.65c13.23-2.06 14.11-4.12 33.22-79.97 20.58-82.32 19.99-82.62 4.7-84.97l-13.82-1.76 1.18-3.53h82.62c39.4 0 48.81 13.82 48.81 35.28 0 35.58-34.4 66.15-68.5 66.15-10.29 0-25.28-2.35-36.16-7.94-17.93 72.03-17.05 74.68-6.17 76.15l27.93 3.23-.88 3.53zm-19.99-86.14c11.47 1.47 20.87 1.76 34.4 1.76 26.46 0 47.92-20.87 47.92-54.69 0-21.76-6.47-33.22-34.99-33.22-8.23 0-16.17 1.18-24.11 2.65-3.23 6.76-7.94 22.05-22.34 79.38-.29 1.47-.59 2.65-.88 4.12z"/><path d="m391.96 175.72c0 43.81-30.28 89.08-67.33 89.08-22.05 0-39.1-19.7-39.1-56.16 0-43.81 30.28-88.79 67.62-88.79 21.76 0 38.81 19.4 38.81 55.86zm-5.29-9.41c0-17.35-14.7-24.99-32.05-24.99-36.46 0-63.8 39.4-63.8 76.74 0 17.64 14.99 25.87 31.16 25.87 37.93 0 64.68-39.4 64.68-77.62z"/><path d="m505.74 146.91c-31.16-1.47-37.93 13.82-74.97 114.96h-25.28c12.05-35.58 39.4-90.85 39.4-105.84 0-7.94-4.12-13.82-12.94-13.82-7.94 0-14.99 3.82-28.52 32.05l-2.35-1.18c14.41-38.81 22.05-53.21 33.22-53.21 8.82 0 15.58 12.94 15.58 33.81 0 14.99-10.29 57.92-16.46 85.56l2.06.59c31.16-89.67 42.04-119.07 72.62-119.07l-2.35 26.17z"/><path d="m556.31 92.51 2.65.29c-1.47 6.76-4.7 17.35-8.23 29.99h42.04l-4.7 20.58c-13.82-.88-28.22-1.47-42.63-1.47-8.53 30.58-17.35 65.27-17.35 82.03.29 11.17 5.59 17.05 13.82 17.05s17.35-7.06 31.16-35.58l2.06 1.18c-15.29 44.98-29.11 58.21-42.04 58.21-11.47 0-21.76-10.88-21.76-28.52 0-23.81 15.88-64.09 29.69-94.38h-22.93v-3.23c20.58-6.76 27.05-16.17 38.22-46.16z"/><path d="m660.96 79.58c-17.05 0-25.58 6.47-30.58 43.22h45.87l-4.7 20.58c-13.82-.88-29.11-1.47-43.81-1.47-3.53 48.81-6.47 115.84-9.41 139.65-2.65 19.4-9.41 32.34-23.23 32.34-11.47 0-20.29-12.35-22.05-44.69l2.65-.59c3.53 21.46 7.35 26.46 12.35 26.46 5.59 0 7.94-5.59 10-16.17 4.41-22.64 14.41-87.61 23.81-137.01-7.64 0-15.29 0-22.34.29v-3.23c14.7-3.53 21.46-7.35 25.58-14.41.29-1.18.59-2.65.88-4.12 8.53-40.28 18.82-58.8 46.16-58.8 2.65 0 7.06.29 9.7.88l-2.06 19.11c-6.17-1.47-11.76-2.06-18.82-2.06z"/><path d="m769.16 175.72c0 43.81-30.28 89.08-67.33 89.08-22.05 0-39.1-19.7-39.1-56.16 0-43.81 30.28-88.79 67.62-88.79 21.76 0 38.81 19.4 38.81 55.86zm-5.29-9.41c0-17.35-14.7-24.99-32.05-24.99-36.46 0-63.8 39.4-63.8 76.74 0 17.64 14.99 25.87 31.17 25.87 37.93 0 64.68-39.4 64.68-77.62z"/><path d="m816.78 79.87c-4.12 0-13.82 2.35-23.81 8.23l-1.47-2.35c10.88-14.11 21.17-23.81 28.52-23.81s14.99 9.11 14.99 19.4c0 26.75-33.81 117.01-33.81 143.18 0 11.17 4.41 16.76 10.88 16.76s11.76-6.47 24.11-32.05l2.35 1.18c-15 42.63-24.7 54.39-36.75 54.39-10.58 0-19.11-12.64-19.11-28.81 0-33.81 47.33-124.36 47.33-147 0-4.7-5.29-9.11-13.23-9.11z"/><path d="m875.58 142.2c-7.64 0-14.7 3.82-28.22 32.05l-2.35-1.18c14.41-38.81 22.05-53.21 33.22-53.21 8.53 0 16.17 11.47 16.17 24.7 0 19.11-21.17 62.04-21.17 81.73 0 9.7 3.53 15 9.41 15 6.76 0 11.76-6.47 24.4-32.34l2.06 1.18c-14.99 42.92-24.4 54.69-36.46 54.69-10.58 0-18.23-12.05-18.23-26.17 0-26.75 32.93-67.62 33.22-84.97 0-6.47-4.41-11.47-12.05-11.47zm16.17-62.04c0-10.88 6.76-16.17 17.35-16.17 7.35 0 12.05 4.12 12.05 12.05 0 11.47-6.76 17.05-17.35 17.05-7.06 0-12.05-4.41-12.05-12.94z"/><path d="m1027.87 175.72c0 43.81-30.28 89.08-67.33 89.08-22.05 0-39.1-19.7-39.1-56.16 0-43.81 30.28-88.79 67.62-88.79 21.76 0 38.81 19.4 38.81 55.86zm-5.29-9.41c0-17.35-14.7-24.99-32.05-24.99-36.46 0-63.8 39.4-63.8 76.74 0 17.64 14.99 25.87 31.16 25.87 37.93 0 64.68-39.4 64.68-77.62z"/><path d="m1238.78 262.22h-94.02v-3.55l16.85-2.96c13.3-2.37 13.9-4.14 13.9-78.94 0-83.97-.59-84.27-15.67-86.34l-15.97-2.07v-3.55h90.77c41.1 0 58.54 17.45 58.54 43.46 0 29.86-25.72 58.25-64.75 58.25-8.87 0-22.47-1.48-32.82-5.91 0 71.26 1.48 73.33 14.49 74.8l28.68 3.25v3.55zm-43.17-84.86c12.42 1.48 22.77 1.77 36.66 1.77 26.02 0 39.03-15.67 39.03-40.51 0-31.64-15.67-49.67-46.42-49.67-9.76 0-18.63 1.18-26.91 2.96-1.48 7.1-2.37 22.47-2.37 78.06v7.39z"/><path d="m1371.54 265.18c-39.32 0-65.34-28.98-65.34-74.8 0-40.21 25.43-70.37 77.17-70.37 40.21 0 64.75 23.06 64.75 62.98 0 49.08-31.64 82.2-76.58 82.2zm12.42-7.98c29.27 0 42.28-19.51 42.28-61.79 0-47.01-20.99-70.37-52.93-70.37-27.5 0-45.83 16.26-45.83 56.77 0 48.19 20.7 75.4 56.47 75.4z"/><path d="m1476.2 139.82-13.9-1.18v-3.25c17.15-3.84 31.05-8.87 41.39-13.9l2.37.89c0 14.49-.59 31.34-.89 47.9l1.77.3c5.91-27.2 25.13-50.56 51.45-51.15.3 7.39.89 17.74.89 25.13-3.25 0-7.69-.59-11.53-.59-20.4 0-40.8 12.12-40.8 40.21 0 67.71 1.18 70.07 8.58 70.96l27.79 3.55v3.55h-81.01v-3.55l14.19-2.37c9.76-1.77 10.35-4.44 10.35-57.06 0-56.77-.89-58.25-10.64-59.43z"/><path d="m1624.04 265.18c-25.43 0-33.12-14.78-33.12-34.59 0-9.46 1.18-26.02 1.18-40.8 0-19.81 0-35.78-1.18-53.81-7.69 0-15.37 0-23.06.3v-2.96c28.68-6.8 33.12-10.05 43.17-39.32l2.96.59c-.89 8.58-1.48 18.04-1.77 28.38h55.59l-5.03 14.49c-16.85-.89-33.71-1.48-50.86-1.77-.3 15.97-.3 32.82-.3 49.08 0 13.6 0 27.79.59 41.39 1.18 17.15 8.87 23.65 22.77 23.65 18.33 0 23.36-16.26 28.09-45.83l3.25.3c-5.32 42.28-18.04 60.91-42.28 60.91z"/><path d="m1768.32 78.32c-5.62-1.18-9.17-1.48-12.71-1.48-27.5.59-38.73 9.17-38.73 28.38 0 5.03 1.48 10.94 4.73 17.74h47.01l-4.14 14.49c-13.3-.89-26.61-1.18-39.92-1.48 0 117.97.3 119.15 9.17 120.34l24.84 2.37v3.55h-79.24v-3.55l10.35-1.18c14.19-1.77 14.78-2.66 14.78-58.25 0-30.45-.89-50.85-1.18-63.27-8.28 0-16.56 0-24.84.3v-2.96c13.01-2.07 20.11-4.14 24.54-7.98.59-33.12 33.11-64.46 65.34-64.46z"/><path d="m1842.54 265.18c-39.32 0-65.34-28.98-65.34-74.8 0-40.21 25.43-70.37 77.17-70.37 40.21 0 64.75 23.06 64.75 62.98 0 49.08-31.64 82.2-76.58 82.2zm12.42-7.98c29.27 0 42.28-19.51 42.28-61.79 0-47.01-20.99-70.37-52.92-70.37-27.5 0-45.83 16.26-45.83 56.77 0 48.19 20.7 75.4 56.47 75.4z"/><path d="m1945.72 81.27-13.6-1.77v-3.25c27.79-4.43 36.07-7.69 42.28-15.38l2.96.3c-.3 32.23-.3 63.27-.3 95.5 0 95.2 0 96.39 8.28 98.75l16.85 3.25v3.55h-70.37v-3.55l12.12-1.77c12.71-2.07 12.71-3.84 12.71-63.57 0-108.51-.59-110.28-10.94-112.06z"/><path d="m2039.16 141.89c-7.69 0-14.78 3.84-28.38 32.23l-2.37-1.18c14.49-39.03 22.18-53.52 33.41-53.52 8.57 0 16.26 11.53 16.26 24.84 0 19.22-21.29 62.39-21.29 82.2 0 9.76 3.55 15.08 9.46 15.08 6.8 0 11.83-6.5 24.54-32.52l2.07 1.18c-15.08 43.17-24.54 54.99-36.66 54.99-10.64 0-18.33-12.12-18.33-26.31 0-26.91 33.11-68 33.41-85.45 0-6.5-4.43-11.53-12.12-11.53zm16.26-62.39c0-10.94 6.8-16.26 17.45-16.26 7.39 0 12.12 4.14 12.12 12.12 0 11.53-6.8 17.15-17.44 17.15-7.1 0-12.12-4.44-12.12-13.01z"/><path d="m2153.28 265.18c-39.32 0-65.34-28.98-65.34-74.8 0-40.21 25.43-70.37 77.17-70.37 40.21 0 64.75 23.06 64.75 62.98 0 49.08-31.64 82.2-76.58 82.2zm12.42-7.98c29.27 0 42.28-19.51 42.28-61.79 0-47.01-20.99-70.37-52.92-70.37-27.5 0-45.83 16.26-45.83 56.77 0 48.19 20.7 75.4 56.47 75.4z"/><circle cx="75.9" cy="174.86" r="12"/><circle cx="1091.87" cy="174.86" r="12"/></g></svg>